<?xml version="1.0"?><svg version="1.2" baseProfile="tiny-ps" viewBox="0 0 300 300" xmlns="http://www.w3.org/2000/svg" xmlns:xlink="http://www.w3.org/1999/xlink"><title>mindsync</title><g><g fill="#fdfdfe" transform="matrix(.1 0 0 -.1 0 300)"><path d="M0 1500V0h3000v3000H0V1500z"/></g><g fill="#dcd7df" transform="matrix(.1 0 0 -.1 0 300)"><path d="m1482 2140 3-230 10-3 10-2 3 233 2 232h-30l2-230zm-115 214-7-7v-437h40l-2 222-3 221-11 4c-5 2-13 0-17-3zm235-219 3-225h20l3 225 2 225h-30l2-225zm-352-9v-216h30l-2 212-3 211-12 5-13 4v-216zm470-2v-216l13 4 12 5 3 179c2 98 0 194-3 212l-6 32h-19v-216zm-590-24v-190h30v380h-30v-190zm702 0 3-190h20l3 190 2 190h-30l2-190zm-812-30v-162l13 5 12 4v306l-12 5-13 4v-162zm932-2 3-163 10 2 10 3 3 160 2 160h-30l2-162zm-1050-43 3-115 10-3 10-2 3 118 3 117h-32l3-115zm1158 1v-116h41l-3 112-3 113-17 3-18 3v-115zm-1280-71v-45h30v90h-30v-45zm1400 0v-45h30v90h-30v-45zM662 1778l-22-11-6-24-7-24 11-24 11-24 27-7 28-7 25 14 26 15 3 31 3 32-20 20-21 21-17-1c-10 0-28-5-41-11zm758-88v-81l-22 15-22 16h-93l-33-22c-18-13-43-36-54-51l-21-28v-138l21-28c11-15 36-38 54-50l33-23h93l22 16 22 15v-21h110l-2 228-3 227-52 3-53 3v-81zm-24-176 26-25-6-27c-8-32-40-62-68-62h-19l-24 25-25 24v42l25 24 24 25h42l25-26zM86 1624c-3-8-6-83-6-165v-150l58 3 57 3 3 107 3 107 18 6c49 15 61-11 61-137v-88h110v206l12 12c7 7 20 12 30 12h18l10-26 10-25v-179h110v215l-10 37-11 37-33 20-33 21h-75l-28-17-28-16-26 16-25 17h-36c-20 0-45-5-56-10l-19-11-12 7c-6 4-30 9-53 11l-43 3-6-16zm602 8-48-3v-319h110v319l-7 3c-5 2-29 2-55 0zm129 1-7-6v-317h119l3 106 3 107 18 11 17 11 18-11 17-11 3-107 3-107 57 3 57 3 3 85c2 47 0 105-3 129l-7 45-33 33-33 33h-42c-23 0-50-5-61-10l-19-11-12 7c-16 10-93 16-101 7zm816-12c-38-24-53-49-53-90v-30l23-26 22-26 58-17 58-17v-10c0-5-6-14-15-20l-15-9-28 20-28 20-39-11-40-11-4-13-4-12 18-21c11-11 33-27 51-34l32-14h96l35 18 35 17 12 25c7 14 13 37 13 52v26l-25 31-26 30-54 11c-30 6-58 16-61 22l-7 10 14 9c20 12 25 11 44-7l16-17 39 12c22 6 42 16 45 21l6 9-29 32-29 33-64 3-64 4-32-20zm290 9-52-5 60-145c32-80 59-152 59-160 0-23-20-40-48-40h-23l3-47 3-48 49 1h49l27 30 26 30 73 185c40 101 73 188 74 194l2 10-55-4-55-3-7-12c-5-6-18-41-30-78-12-38-25-68-28-68s-18 36-34 80c-15 44-31 81-35 83-3 1-29 0-58-3zm355 4-18-5v-319h110v210l26 12 26 12 16-11 17-10 3-107 3-106h109v241l-14 28c-8 15-27 36-42 45l-26 18-52-6c-28-3-55-6-61-6-5-1-26 1-45 4-19 2-43 2-52 0zm422-14c-19-12-44-34-55-48l-20-27-3-65-4-65 24-34c12-19 35-43 50-54l27-20 54-5 54-4 34 17c43 22 69 45 69 61v12l-36 21-37 22-33-16-34-16-28 13-27 13v89l25 15 26 14 36-17 36-17 36 23c20 13 36 28 36 35s-16 24-36 40l-36 27-62 3-61 4-35-21zM782 1078l3-41 13-5 12-4v92h-31l3-42zm118-73V890h30v230h-30v-115zm117 102c-7-18 0-297 7-305 4-3 11-1 16 4l11 11-3 148-3 148-11 4-12 4-5-14zm115-177 3-190h20l3 190 2 190h-30l2-190zm118-25V690h30v430h-30V905zm115 203c-3-7-4-108-3-223l3-210h30v438l-12 4-13 5-5-14zm117-215 3-226 13-5 12-4v462h-30l2-227zm118 2V670h30v450h-30V895zm119 218c0-5-1-100-1-213V695h25l-1 130c0 72-1 167-1 213l-1 82h-10c-5 0-10-3-11-7zm113-183 3-190h20l3 190 2 190h-30l2-190zm118 30V800h30v320h-30V960zm112 48 3-113h30v220l-18 3-18 4 3-114zm118 67v-45h30v90h-30v-45z"/></g><g fill="#ad9eb5" transform="matrix(.1 0 0 -.1 0 300)"><path d="M1485 2348c-3-13-4-115-3-227l3-204 13-5 12-4v451l-10 6-9 6-6-23zm-115-213v-225h20v450h-20v-225zm230 0v-227l13 5 12 4v436l-12 5-13 4v-227zm-343 199-7-7v-419l13 4 12 5 3 197 2 197-8 15-8 15-7-7zm463-209v-215h20v430h-20v-215zm-583 158c-2-5-3-89-3-187l1-179 13-4 12-5v382h-9c-6 0-12-3-14-7zm697-6c-2-7-3-91-2-187l3-173 13-5 12-4v382h-10c-6 0-13-6-16-13zm-814-207v-160h20v320h-20v-160zm937 153c-4-3-7-75-7-160v-153h20v160c0 88-1 160-3 160s-7-3-10-7zM900 2025v-117l13 5 12 4v216l-12 5-13 4v-117zm1170 0v-115h20v230h-20v-115zm-1280-70v-45h20v90h-20v-45zm1394 31c-3-8-4-27-2-42l3-27 13-5 12-4v81l-10 6-10 6-6-15zM646 1758c-9-12-16-30-16-39v-18l26-20c15-12 34-21 44-21h17l21 23c26 28 27 45 6 75l-15 22h-68l-15-22zm774-73v-76l-32 17-31 16-43-5-42-4-31-22c-17-13-39-37-48-54l-17-32v-55l-1-55 21-35 20-35 40-22 39-23h66l29 15 30 16v-21h100v450h-100v-75zm-20-167 20-22v-50l-22-23-21-23h-57l-20 20-20 20v60l20 20 20 20h59l21-22zM218 1625l-28-16v21H90v-320h100v191l10 20 11 19h22c13 0 28-5 35-12l12-12v-207l53 3 52 3 5 110 5 110 23 3 23 4 15-12 14-12v-208h100v260l-27 30-28 31-40 5-40 5-39-20-40-21-17 16-17 16-39 4-38 4-27-15zm730-1-28-15v21H820v-320h100v191l10 20 11 19h58l11-19 10-20v-191h100v241l-15 29-15 30-30 15c-36 19-77 19-112-1zm722 10c-8-3-26-11-38-17l-24-11-15-29-15-29 7-35 6-34 32-20c18-10 48-22 68-25s42-10 49-14l13-8-6-16-6-16h-50l-15 15-16 16-33-6c-18-4-39-10-46-15l-13-7 17-26 16-25 40-16c50-20 98-20 148 0l39 16 17 34 16 35-6 29-7 30-25 20-25 19-37 7c-20 3-44 8-54 11l-18 5 3 16 3 17 18 3 18 4 17-15 17-15 35 12 35 11 3 16 3 17-32 23-32 22-46 3c-25 2-53 1-61-2zm725-9-30-16-3 10-4 11h-98v-321l53 3 52 3 3 99 3 100 11 13c13 16 50 17 66 1l12-12v-206h110v221l-14 32c-7 18-23 40-34 50l-20 19-39 4-38 5-30-16zm319-4-41-19-23-33-24-33-4-55-3-56 19-35 19-35 33-22c18-12 47-25 66-29l34-6 35 6 35 7 35 31c19 16 35 33 35 37 0 3-18 16-41 29l-41 24-18-17-18-16-28 3-27 3-20 27-20 26 7 25c3 14 13 33 22 41l15 16h52l18-16 17-15 42 26 42 27-23 25c-30 32-78 53-121 53h-33l-41-19zm-2070-4c-2-7-3-78-2-157l3-145 53-3 52-3v321H649l-5-13zm1236 5c0-5 27-73 59-153l59-144-12-20-13-20-27-3-26-3v-89h95l21 18c12 9 29 31 37 47 19 38 147 359 147 368 0 4-24 7-54 7h-53l-22-62c-13-35-25-73-28-85-3-13-8-23-12-23-3 0-20 37-36 83l-30 82-53 3-52 3v-9zM790 1076v-46h20v79l-10 6-10 6v-45zm112-68 3-113 10 3 10 2v213l-13 5-13 4 3-114zm118-48V800h20v320h-20V960zm119 123c0-21-1-105-2-187V746l11-4 12-4v382h-20l-1-37zm116 26c-3-8-4-104-3-214l3-200h20l3 204 2 205-9 9-10 10-6-14zm115-214V670h20v450h-20V895zm116 218c-8-8-8-416 0-437l6-16 9 6 9 5v438l-9 5c-4 3-11 3-15-1zm114-219V668l13 4 12 5 3 179c2 98 0 198-3 222l-6 42h-19V894zm120 10V689l10 6 10 6v419h-20V904zm115 204c-3-8-4-92-3-188l3-173 13-5 12-4v371l-10 6-10 6-5-13zm122 5c-4-3-7-73-7-154V811l10-6 10-6v160c0 89-1 161-3 161s-7-3-10-7zm113-103V900h20v220h-20v-110zm115 98c-9-22-2-68 10-71l10-2 3 34 3 34-10 10-10 10-6-15z"/></g><g fill="#755389" transform="matrix(.1 0 0 -.1 0 300)"><path d="M1494 2135v-230l3 118c2 65 2 168 0 230-1 62-3 9-3-118zm-124-5v-220h20v440h-20v-220zm230 6v-215l10-6 10-6v441h-20v-214zm-336-16c0-118 2-167 3-107 2 59 2 155 0 215-1 59-3 10-3-108zm456 5v-205h20v410h-20v-205zm-580-25v-191l10 6 10 6v358l-10 6-10 6v-191zm700 0c0-106 2-191 5-188 8 8 9 367 1 375l-6 6v-193zm-820-29v-150l10-6 10-6v311h-20v-149zm944-6v-160l3 83c2 46 2 118 0 160l-3 77v-160zm-1060-40c1-57 5-108 9-111l7-7v223h-19l3-105zm1166-5v-110h20v220h-20v-110zm123-65v-50l4 28c2 15 2 37 0 50l-4 22v-50zm-1403-3v-43l10 6c13 8 13 45 0 65l-10 15v-43zm-134-188-16-15v-57l15-12c8-7 27-12 42-12h27l18 22 18 23-6 21c-8 27-32 46-60 46h-23l-15-16zm764-79v-75h-8c-4 0-13 5-19 11l-11 11h-52l-52-1-33-23-33-22-16-33-16-34v-100l15-29c8-16 30-40 48-54l34-26h99l22 16 22 15 6-15 6-16h88v450h-100v-75zm-16-167 16-22v-56l-20-20-20-20h-63l-19 17-18 16v70l17 19 16 18h76l15-22zM250 1632c-14-2-31-9-38-15l-13-10-11 11-12 12H90v-320h100v206l12 12 12 12h56l5-22c3-13 6-63 8-113l2-90 48-3 47-3v197l13 18 13 18 29-4 30-3 5-110 5-110 48-3 47-3v242l-15 29c-8 16-24 34-34 40l-20 10h-92l-24-16-25-16-14 11c-20 16-66 28-96 23zm1427-2-39-7-24-25-25-25-1-29c-1-16 2-38 6-49l6-21 27-16c16-8 46-19 68-23s46-11 53-17l12-11-11-13-11-14h-51l-17 15-16 14-37-10-37-10v-13c0-15 24-38 58-55l23-12h107l31 15c37 20 51 44 51 89v34l-24 22-24 22-52 14c-29 8-57 18-63 24l-9 9 6 11c9 14 49 14 63 0l12-12 35 7c55 11 59 39 8 68-36 20-78 26-125 18zM650 1470v-161l48 3 47 3v310l-47 3-48 3v-161zm170 0v-160h100v206l12 12c7 7 24 12 38 12s31-5 38-12l12-12v-206h100v221l-15 36c-8 20-23 42-33 49l-17 13-51 1h-50l-12-12-12-12-12 12-12 12h-86v-160zm1060 155c0-4 27-72 61-153l61-146-11-23-11-23-30-7-31-6 3-36 3-36 42-3 41-3 31 28 31 28 71 180c39 99 73 186 76 193l5 12h-101l-6-10c-3-5-19-47-35-92l-28-83-11 25c-6 14-22 54-35 90l-24 65-51 3c-28 2-51 0-51-3zm384-8c-2-7-3-78-2-157l3-145 48-3 47-3v180l10 25 10 26h70l10-26 10-25v-179h88l5 13c2 6 2 68-2 135l-6 124-28 24-28 24h-90l-22-11-21-12-4 12-4 11h-89l-5-13zm429-8-32-20-22-45-22-46 7-46 6-46 22-33 23-32 36-16 36-17h91l24 12c32 17 58 41 58 54 0 6-16 21-35 34l-36 23-15-16-15-15h-59l-20 20-20 20v56l16 22 15 22h65l19-14 19-14 33 22 33 21-3 15c-1 8-17 25-36 37l-34 23h-122l-32-21zM909 1118c-1-2-3-49-5-105l-4-102 10-6 10-6v110c0 61-2 111-5 111s-5-1-6-2zm-119-45v-38l9 13 8 13-5 25c-6 35-12 29-12-13zm230-113V810h20v300h-20V960zm120-36V739l10 6 10 6v359h-20V924zm124-19V695l3 108c2 59 2 154 0 210-1 56-3 8-3-108zm106-10V680h20v430h-20V895zm124-5c0-124 2-174 3-112 2 61 2 163 0 225-1 61-3 11-3-113zm106 5V680h20v430h-20V895zm120 10V700h20v410h-20V905zm120 20c0-104 3-186 6-182 7 6 5 359-1 366-3 2-5-80-5-184zm124 35V805l3 78c2 42 2 112 0 155l-3 77V960zm106 45V900h20v210h-20v-105zm123 70v-40l4 23c2 12 2 30 0 40l-5 17 1-40z"/></g><g fill="#444" transform="matrix(.1 0 0 -.1 0 300)"><path d="M657 1762c-19-21-21-45-7-73l11-19h65l12 12 12 12v53l-18 16c-10 10-28 17-39 17h-20l-16-18zm770-9c-4-3-7-40-7-80v-74l-22 15-22 16h-93l-34-23-34-22-17-35-18-35v-90l18-35 17-35 34-22 34-23h93l20 15c25 19 34 19 34-1v-15l43 3 42 3 3 223 2 222h-43c-24 0-47-3-50-7zm-24-230 17-16v-70l-17-19-16-18h-74l-15 18c-9 9-19 27-22 38l-7 22 12 25c6 14 21 30 33 36l21 10 25-5c14-3 33-13 43-21zM94 1617c-2-7-3-78-2-157l3-145h90l3 107 3 108 21 11 21 11 23-11 23-10 3-108 3-108 48-3 47-3v210l16 16 16 16 21-3 21-3 13-25 13-25v-186l43 3 42 3 3 105 3 105-10 35-10 35-30 18-29 17h-79l-25-19-24-19-24 19-25 19h-81l-22-16-22-15-6 15-6 16H99l-5-13zm558-144 3-158 43-3 42-3v321h-91l3-157zm172 144c-2-7-3-78-2-157l3-145h90l5 108 5 108 15 9c8 5 22 10 30 10s22-5 30-10l15-9 5-108 5-108h90l3 100 3 100-11 37-10 37-27 20-26 21h-83l-22-16-22-15-6 15-6 16h-79l-5-13zm809-7-32-19-7-24c-3-14-4-37-2-53l3-28 32-22 32-21 39-7 39-6 13-15 13-16-11-11c-6-6-22-10-37-10h-26l-17 15-18 16-37-11-38-12 3-15c2-8 18-26 37-38l34-23h118l29 15c36 19 50 43 50 88v35l-29 25-30 25-44 6-45 7-12 14-12 14 7 11 6 10h28c15 0 32-5 38-11l11-11 36 12c20 6 36 15 36 20 0 4-14 20-31 34l-31 26h-113l-32-20zm254 13c-2-5 23-73 56-152l60-144-14-26-15-26-22-3-22-3v-79h29c16 0 41 4 55 10l25 9 17 26c20 31 154 363 154 382v14l-46-3-47-3-31-87c-17-49-33-88-37-88-3 0-21 41-38 90l-33 90h-43c-24 0-46-3-48-7zm383-153v-160h90v200l20 20c11 11 27 20 35 20s24-9 35-20l20-20v-200h90v241l-11 22c-6 12-21 30-33 39l-21 18h-91l-21-15-21-15-6 15-5 15h-81v-160zm435 141c-44-27-62-51-74-98l-12-43 11-39c12-47 42-87 80-106l29-15h106l38 25c20 14 37 31 37 38v12l-35 19-36 19-11-11-12-12h-75l-15 22-16 22v63l18 16 19 17h31c18 0 41-5 51-12l18-11 32 22 32 23-4 12c-2 6-18 21-37 34l-33 22h-112l-30-19z"/></g><g fill="#030303" transform="matrix(.1 0 0 -.1 0 300)"><path d="m660 1760-20-20v-37l18-16c10-10 28-17 39-17h20l16 18 17 19v42l-22 15c-30 21-44 20-68-4zm770-85v-75h-7c-5 1-19 7-33 15l-25 14-35 1h-35l-35-19-35-18-20-34-20-34v-112l25-36 24-35 33-16c19-9 47-16 64-16h30l32 16 31 17 4-12 4-11h88v430h-90v-75zm-25-151 25-27v-54l-25-27-24-26h-62l-24 25-25 24v62l25 24 24 25h62l24-26zm-1194 88-24-17-5 13-4 12h-78v-300h80v175l13 25 12 25 27 3 26 3 16-23 16-22v-186h90v206l12 12c7 7 22 12 34 12h23l15-16 16-15v-199h87l-1 38c-1 20-3 76-4 124l-2 87-23 26-22 26-42 6-42 6-36-22-37-21-25 20-26 20-36-1h-36l-24-17zm734 2-30-15-3 10-4 11h-78v-300h80v175l13 25 12 25 32 3 31 3 16-23 16-22v-186h80v229l-12 26-12 26-27 15c-36 18-77 18-114-2zm697-1-34-16-9-24c-5-14-9-35-9-49v-25l26-24 26-24 55-11 54-12 6-14 5-14-12-15-12-15h-22c-12 0-31 7-42 15-23 17-34 18-69 5l-25-10 12-20 13-20 38-15c47-19 98-19 142-1l33 14 17 26 17 26-6 34-7 34-15 12c-8 7-43 20-77 29l-62 16-3 22-3 21 21 7 21 7 24-16 24-15 31 10 31 11-3 15-3 16-35 18-35 19h-80l-33-17zm748 0-24-17-4 12-4 12h-88v-300h90v199l16 15 15 16h48l15-16 16-15v-199h92l-4 126-3 126-33 29-32 29h-76l-24-17zm322 0-33-16-21-30-22-31-4-55-3-56 19-35 18-35 44-22 44-23h33c42 0 92 21 116 47l18 21-35 21-35 22-25-16-25-17-32 7-31 7-15 35-14 36 12 29c19 47 73 63 114 34l20-14 32 23 33 22-23 21c-29 27-70 42-115 42h-37l-33-17zM650 1470v-150h90v300h-90v-150zm1240 145c0-3 23-60 51-127 28-68 54-135 56-149l5-27-11-21-12-21h-49v-68l15-6c19-7 65 2 86 17 8 7 23 26 32 42 15 27 147 352 147 362 0 2-21 3-46 1l-47-3-31-87c-17-49-33-88-37-88-3 0-21 41-38 90l-33 90h-44c-24 0-44-2-44-5z"/></g></g></svg>